<svg width="50" height="43" viewBox="0 0 50 43" fill="none" xmlns="http://www.w3.org/2000/svg">
<path d="M43.48 31.38H15.76L9.87 6.38H48.37L43.48 31.38Z" stroke="#3A4651" stroke-width="2" stroke-linecap="round" stroke-linejoin="round"/>
<path d="M21.87 41.88C22.6984 41.88 23.37 41.2084 23.37 40.38C23.37 39.5516 22.6984 38.88 21.87 38.88C21.0416 38.88 20.37 39.5516 20.37 40.38C20.37 41.2084 21.0416 41.88 21.87 41.88Z" stroke="#3A4651" stroke-width="2" stroke-linecap="round" stroke-linejoin="round"/>
<path d="M36.87 41.88C37.6984 41.88 38.37 41.2084 38.37 40.38C38.37 39.5516 37.6984 38.88 36.87 38.88C36.0416 38.88 35.37 39.5516 35.37 40.38C35.37 41.2084 36.0416 41.88 36.87 41.88Z" stroke="#3A4651" stroke-width="2" stroke-linecap="round" stroke-linejoin="round"/>
<path d="M45.37 18.88H31.37" stroke="#3A4651" stroke-width="2" stroke-linecap="round" stroke-linejoin="round"/>
<path d="M9.93002 6.56L7.36002 4C6.12154 2.7583 4.4621 2.02672 2.71002 1.95001L1.37 1.89001" stroke="#3A4651" stroke-width="2" stroke-linecap="round" stroke-linejoin="round"/>
</svg>
