<svg width="44" height="31" viewBox="0 0 44 31" fill="none" xmlns="http://www.w3.org/2000/svg">
<path d="M42.66 25.03C41.9466 25.03 41.2623 24.7466 40.7579 24.2421C40.2534 23.7377 39.97 23.0535 39.97 22.34C39.97 21.6266 40.2534 20.9424 40.7579 20.4379C41.2623 19.9335 41.9466 19.65 42.66 19.65H42.74V12.86H42.66C41.9736 12.8182 41.3291 12.5161 40.8578 12.0153C40.3866 11.5144 40.1242 10.8527 40.1242 10.165C40.1242 9.47739 40.3866 8.81563 40.8578 8.31482C41.3291 7.814 41.9736 7.51186 42.66 7.47003H42.74V1H1.19V7.47003C1.87378 7.51178 2.51588 7.81282 2.98529 8.31177C3.4547 8.81072 3.71606 9.46998 3.71606 10.155C3.71606 10.8401 3.4547 11.4993 2.98529 11.9983C2.51588 12.4972 1.87378 12.7983 1.19 12.84V19.65C1.87378 19.6918 2.51588 19.9928 2.98529 20.4918C3.4547 20.9907 3.71606 21.65 3.71606 22.335C3.71606 23.0201 3.4547 23.6793 2.98529 24.1783C2.51588 24.6772 1.87378 24.9783 1.19 25.02V29.65H42.74V25.03H42.66Z" stroke="#3A4651" stroke-width="2" stroke-linejoin="round"/>
<path d="M13.04 14C12.2587 13.0566 11.8311 11.87 11.8311 10.645C11.8311 9.42004 12.2587 8.23349 13.04 7.29004C13.9145 6.47967 15.0628 6.02942 16.255 6.02942C17.4472 6.02942 18.5955 6.47967 19.47 7.29004C20.2513 8.23349 20.6789 9.42004 20.6789 10.645C20.6789 11.87 20.2513 13.0566 19.47 14C18.5988 14.817 17.4493 15.2717 16.255 15.2717C15.0607 15.2717 13.9112 14.817 13.04 14ZM16.12 24.09C15.57 24.09 15.36 23.7101 15.65 23.2401L20.22 15.87C20.5829 15.3041 20.9167 14.72 21.22 14.12L24.38 7.39001C24.521 7.12901 24.7264 6.90842 24.9767 6.74915C25.227 6.58987 25.5138 6.49724 25.81 6.48004H28.19C28.74 6.48004 28.94 6.86001 28.65 7.32001L23.79 14.9C23.4396 15.4661 23.1257 16.054 22.85 16.66L19.97 23.1801C19.8346 23.4414 19.6332 23.6628 19.3859 23.8224C19.1386 23.982 18.8539 24.0743 18.56 24.09H16.12ZM17.05 11.94C17.2624 11.5409 17.3627 11.0916 17.34 10.64C17.3674 10.1828 17.2706 9.72671 17.06 9.32001C16.9797 9.17861 16.8634 9.06105 16.7228 8.97925C16.5823 8.89744 16.4226 8.85431 16.26 8.85431C16.0974 8.85431 15.9377 8.89744 15.7972 8.97925C15.6567 9.06105 15.5403 9.17861 15.46 9.32001C15.2556 9.73224 15.1626 10.1907 15.19 10.65C15.1688 11.1015 15.269 11.5504 15.48 11.95C15.5551 12.0947 15.6685 12.2161 15.8078 12.3007C15.9471 12.3854 16.107 12.4302 16.27 12.4302C16.433 12.4302 16.5929 12.3854 16.7322 12.3007C16.8716 12.2161 16.9849 12.0947 17.06 11.95L17.05 11.94ZM24.57 23.32C23.7879 22.375 23.36 21.1867 23.36 19.96C23.36 18.7333 23.7879 17.5451 24.57 16.6C25.4429 15.7903 26.5894 15.3404 27.78 15.3404C28.9706 15.3404 30.1171 15.7903 30.99 16.6C31.7667 17.5475 32.1912 18.7349 32.1912 19.96C32.1912 21.1852 31.7667 22.3725 30.99 23.32C30.1171 24.1297 28.9706 24.5797 27.78 24.5797C26.5894 24.5797 25.4429 24.1297 24.57 23.32ZM28.57 21.25C28.7849 20.8518 28.8853 20.4018 28.86 19.95C28.8884 19.4927 28.7916 19.0364 28.58 18.63C28.5049 18.4868 28.3909 18.3677 28.2512 18.2864C28.1115 18.205 27.9516 18.1647 27.79 18.17C27.6263 18.1672 27.4651 18.2096 27.3239 18.2925C27.1828 18.3755 27.0672 18.4957 26.99 18.64C26.7753 19.0419 26.675 19.495 26.7 19.95C26.6788 20.4015 26.7789 20.8503 26.99 21.25C27.0674 21.3919 27.1817 21.5103 27.3207 21.5928C27.4597 21.6753 27.6184 21.7189 27.78 21.7189C27.9416 21.7189 28.1003 21.6753 28.2393 21.5928C28.3783 21.5103 28.4926 21.3919 28.57 21.25Z" fill="#3A4651"/>
</svg>
