<svg width="52" height="40" viewBox="0 0 52 40" fill="none" xmlns="http://www.w3.org/2000/svg">
<path d="M36.2 29.5H3.19995L8.19995 1.5H41.2L36.2 29.5Z" stroke="#3A4651" stroke-width="2" stroke-linecap="round" stroke-linejoin="round"/>
<path d="M48.2 29.5H36.2L39.2 12.5H44.7C45.6917 12.4945 46.6705 12.7244 47.5561 13.1707C48.4417 13.617 49.2089 14.267 49.7945 15.0674C50.3801 15.8677 50.7675 16.7956 50.9249 17.7747C51.0823 18.7539 51.0052 19.7564 50.7 20.7L48.2 29.5Z" stroke="#3A4651" stroke-width="2" stroke-linecap="round" stroke-linejoin="round"/>
<path d="M12.61 38.35C13.941 38.35 15.02 37.271 15.02 35.94C15.02 34.609 13.941 33.53 12.61 33.53C11.2789 33.53 10.2 34.609 10.2 35.94C10.2 37.271 11.2789 38.35 12.61 38.35Z" stroke="#3A4651" stroke-width="2" stroke-linecap="round" stroke-linejoin="round"/>
<path d="M33.3 38.35C34.631 38.35 35.71 37.271 35.71 35.94C35.71 34.609 34.631 33.53 33.3 33.53C31.969 33.53 30.89 34.609 30.89 35.94C30.89 37.271 31.969 38.35 33.3 38.35Z" stroke="#3A4651" stroke-width="2" stroke-linecap="round" stroke-linejoin="round"/>
<path d="M1.19995 12.5H16.2" stroke="#3A4651" stroke-width="2" stroke-linecap="round" stroke-linejoin="round"/>
</svg>
