<svg width="45" height="39" viewBox="0 0 45 39" fill="none" xmlns="http://www.w3.org/2000/svg">
<path d="M39.06 3.57C36.9248 2.23284 34.3953 1.66911 31.8944 1.97308C29.3934 2.27705 27.0727 3.43028 25.32 5.23998L22.76 7.76H22.7L20.1699 5.23998C18.4172 3.43028 16.0965 2.27705 13.5955 1.97308C11.0946 1.66911 8.56513 2.23284 6.42995 3.57C5.18212 4.37808 4.13019 5.4542 3.35066 6.72006C2.57113 7.98591 2.08363 9.40966 1.92366 10.8877C1.7637 12.3657 1.93528 13.8607 2.42592 15.264C2.91656 16.6674 3.71393 17.9436 4.75997 19L22.63 37.87L22.9899 37.51L23.1 37.62L40.76 19C41.8046 17.9416 42.5999 16.6636 43.0882 15.2589C43.5765 13.8543 43.7453 12.3585 43.5825 10.8804C43.4196 9.40225 42.9292 7.97907 42.1468 6.71444C41.3645 5.44982 40.3099 4.37559 39.06 3.57V3.57Z" stroke="#3A4651" stroke-width="2" stroke-linecap="round" stroke-linejoin="round"/>
</svg>
