<svg width="38" height="39" viewBox="0 0 38 39" fill="none" xmlns="http://www.w3.org/2000/svg">
<path d="M33.6101 11.8401L23.2801 2.91003C22.0282 1.83301 20.4315 1.24072 18.7801 1.24072C17.1286 1.24072 15.532 1.83301 14.2801 2.91003L3.95007 11.8401C3.20007 12.4896 2.59849 13.2927 2.18613 14.1951C1.77376 15.0974 1.56023 16.0779 1.56006 17.0701V32.8101C1.56006 33.4925 1.69464 34.1682 1.95609 34.7985C2.21753 35.4289 2.60071 36.0014 3.08371 36.4835C3.56671 36.9655 4.14004 37.3476 4.77087 37.6078C5.40171 37.8681 6.07767 38.0014 6.76007 38.0001H13.6901V26.6201C13.6901 25.2621 14.2295 23.9599 15.1897 22.9997C16.1499 22.0395 17.4522 21.5001 18.8101 21.5001C20.168 21.5001 21.4703 22.0395 22.4305 22.9997C23.3906 23.9599 23.9301 25.2621 23.9301 26.6201V38.0001H31.4701C32.6848 38.0001 33.8497 37.5175 34.7086 36.6586C35.5675 35.7997 36.0501 34.6348 36.0501 33.4201V17.0701C36.0437 16.0741 35.8224 15.0912 35.4013 14.1885C34.9802 13.2859 34.3692 12.4849 33.6101 11.8401V11.8401Z" stroke="#3A4651" stroke-width="2" stroke-linecap="round" stroke-linejoin="round"/>
</svg>
