<svg width="43" height="36" viewBox="0 0 43 36" fill="none" xmlns="http://www.w3.org/2000/svg">
<path d="M22.0599 34.16C26.2794 34.16 29.7 30.7395 29.7 26.52C29.7 22.3006 26.2794 18.88 22.0599 18.88C17.8405 18.88 14.42 22.3006 14.42 26.52C14.42 30.7395 17.8405 34.16 22.0599 34.16Z" stroke="#3A4651" stroke-width="2" stroke-linecap="round" stroke-linejoin="round"/>
<path d="M6.50995 12.2399L2.68994 8.41992" stroke="#3A4651" stroke-width="2" stroke-linecap="round" stroke-linejoin="round"/>
<path d="M37.61 12.2399L41.43 8.41992" stroke="#3A4651" stroke-width="2" stroke-linecap="round" stroke-linejoin="round"/>
<path d="M22.0599 6.94V1.53003" stroke="#3A4651" stroke-width="2" stroke-linecap="round" stroke-linejoin="round"/>
<path d="M1.93994 23.6501C3.21716 19.3709 5.82526 15.6103 9.38544 12.9144C12.9456 10.2186 17.2725 8.72789 21.7377 8.65877C26.2028 8.58964 30.5738 9.94574 34.2157 12.5301C37.8576 15.1145 40.5809 18.7925 41.99 23.0301" stroke="#3A4651" stroke-width="2" stroke-linecap="round" stroke-linejoin="round"/>
</svg>
