<svg width="41" height="35" viewBox="0 0 41 35" fill="none" xmlns="http://www.w3.org/2000/svg">
<path d="M8.26001 29.5L36.26 1.5" stroke="#3A4651" stroke-width="2" stroke-linecap="round" stroke-linejoin="round"/>
<path d="M29.26 16.5C31.43 17.42 31.82 18.2 33.34 19.8" stroke="#3A4651" stroke-width="2" stroke-linecap="round" stroke-linejoin="round"/>
<path d="M7.60999 19.56C11.0255 16.2566 15.6087 14.4376 20.36 14.5C21.2667 14.4971 22.1725 14.5606 23.07 14.6899" stroke="#3A4651" stroke-width="2" stroke-linecap="round" stroke-linejoin="round"/>
<path d="M36.26 9.5C37.6369 10.3323 38.8282 11.4385 39.76 12.75" stroke="#3A4651" stroke-width="2" stroke-linecap="round" stroke-linejoin="round"/>
<path d="M1.17999 13C5.17999 7.34004 12.33 3.55009 20.54 3.55009C24.4053 3.53173 28.2233 4.40062 31.7 6.09001" stroke="#3A4651" stroke-width="2" stroke-linecap="round" stroke-linejoin="round"/>
<path d="M20.23 33.5H21.38" stroke="#3A4651" stroke-width="2" stroke-linecap="round" stroke-linejoin="round"/>
<path d="M16.01 25.6501C17.6014 24.8866 19.345 24.4934 21.11 24.5C23.1553 24.489 25.1669 25.0205 26.94 26.0401" stroke="#3A4651" stroke-width="2" stroke-linecap="round" stroke-linejoin="round"/>
</svg>
