<svg width="43" height="43" viewBox="0 0 43 43" fill="none" xmlns="http://www.w3.org/2000/svg">
<path d="M30.78 28.4C28.3388 31.4973 24.8791 33.6293 21.015 34.4178C17.1509 35.2063 13.1325 34.6003 9.67287 32.7071C6.21328 30.814 3.53637 27.7563 2.1173 24.0768C0.698216 20.3972 0.628761 16.3339 1.92127 12.608C3.21377 8.88213 5.78462 5.73474 9.17749 3.72447C12.5704 1.7142 16.5658 0.97107 20.4545 1.62706C24.3433 2.28304 27.8738 4.29569 30.4195 7.30772C32.9652 10.3197 34.3613 14.1364 34.36 18.0801C34.3593 19.2565 34.2353 20.4295 33.99 21.5801" stroke="#3A4651" stroke-width="2" stroke-linecap="round" stroke-linejoin="round"/>
<path d="M29.59 29.99L41.37 41.77" stroke="#3A4651" stroke-width="2" stroke-miterlimit="10" stroke-linecap="round"/>
</svg>
