<svg width="43" height="44" viewBox="0 0 43 44" fill="none" xmlns="http://www.w3.org/2000/svg">
<path d="M41.19 24.1101V19.03L36.44 17.8801C36.0491 16.116 35.3736 14.4272 34.44 12.8801L36.93 8.81006L33.33 5.22021L29.48 7.57007C27.8579 6.47036 26.0531 5.66799 24.15 5.2002L23.15 1H18.07L17.07 5C14.9906 5.38993 13.0049 6.17408 11.22 7.31006L7.84 5.23999L4.23999 8.83008L6.23999 12.1401C5.03766 13.9612 4.20207 15.9992 3.78 18.1401L0 19.0601V24.1101L3.89001 25.05C4.35669 27.0937 5.20487 29.0309 6.39001 30.76L4.22 34.3101L7.82001 37.9001L11.58 35.6101C13.2339 36.6 15.0477 37.2938 16.94 37.6602L18.02 42.1301H23.1L24.24 37.4302C25.956 36.9909 27.5902 36.2783 29.08 35.3201L33.3 37.9001L36.9 34.3101L34.27 30.01C35.1819 28.5522 35.857 26.9592 36.27 25.29L41.19 24.1101ZM20.63 28.55C19.2455 28.55 17.8922 28.1395 16.741 27.3704C15.5899 26.6012 14.6927 25.5081 14.1628 24.229C13.633 22.9499 13.4944 21.5424 13.7645 20.1846C14.0346 18.8267 14.7013 17.5793 15.6803 16.6003C16.6592 15.6214 17.9065 14.9547 19.2644 14.6846C20.6222 14.4145 22.0297 14.5532 23.3088 15.083C24.5879 15.6128 25.6811 16.51 26.4503 17.6611C27.2195 18.8123 27.63 20.1656 27.63 21.55C27.63 23.4066 26.8925 25.187 25.5797 26.4998C24.267 27.8125 22.4865 28.55 20.63 28.55V28.55Z" stroke="#3A4651" stroke-width="2" stroke-linecap="round" stroke-linejoin="round"/>
</svg>
