<svg width="39" height="42" viewBox="0 0 39 42" fill="none" xmlns="http://www.w3.org/2000/svg">
<path d="M30.22 7.96997L9.29001 21.16L24.22 31.35" stroke="#3A4651" stroke-width="2" stroke-linecap="round" stroke-linejoin="round"/>
<path d="M5.51001 27C8.54758 27 11.01 24.5376 11.01 21.5C11.01 18.4624 8.54758 16 5.51001 16C2.47244 16 0.0100098 18.4624 0.0100098 21.5C0.0100098 24.5376 2.47244 27 5.51001 27Z" fill="#3A4651"/>
<path d="M33.51 11C36.5476 11 39.01 8.53757 39.01 5.5C39.01 2.46243 36.5476 0 33.51 0C30.4724 0 28.01 2.46243 28.01 5.5C28.01 8.53757 30.4724 11 33.51 11Z" fill="#3A4651"/>
<path d="M33.51 42C36.5476 42 39.01 39.5376 39.01 36.5C39.01 33.4624 36.5476 31 33.51 31C30.4724 31 28.01 33.4624 28.01 36.5C28.01 39.5376 30.4724 42 33.51 42Z" fill="#3A4651"/>
</svg>
