<svg width="46" height="45" viewBox="0 0 46 45" fill="none" xmlns="http://www.w3.org/2000/svg">
<path d="M23.3501 43.91C28.1939 43.9074 32.8949 42.2685 36.6904 39.2589C40.4859 36.2494 43.1533 32.0457 44.2601 27.33C40.6973 28.1771 36.9769 28.098 33.4533 27.1001C29.9298 26.1022 26.7204 24.2187 24.1309 21.6292C21.5413 19.0396 19.6579 15.8303 18.66 12.3068C17.6621 8.78321 17.583 5.06281 18.4301 1.5C13.2986 2.706 8.78944 5.75589 5.76007 10.0697C2.7307 14.3835 1.39246 19.6604 1.99991 24.8965C2.60735 30.1326 5.11811 34.9628 9.05463 38.4685C12.9911 41.9742 18.0788 43.9108 23.3501 43.91V43.91Z" stroke="#3A4651" stroke-width="2" stroke-miterlimit="10"/>
</svg>
